<svg width="51" height="32" viewBox="0 0 51 32" fill="none" xmlns="http://www.w3.org/2000/svg">
<path d="M25.0703 25.6537L27.3804 30.4851L31.619 28.7695L29.7307 24.0235L33.6212 22.2946L22.4655 12.7566L21.2334 27.3102L25.0703 25.6537Z" fill="white" stroke="white" stroke-width="1.1" stroke-miterlimit="10"/>
<mask id="path-2-inside-1_1938_1744" fill="white">
<path d="M8.16406 21.6211C9.04619 21.6211 9.78281 21.9118 10.374 22.4922C10.9652 23.0725 11.2607 23.7952 11.2607 24.6611C11.2607 25.0849 11.1884 25.4999 11.043 25.9053C10.8975 26.3106 10.6413 26.7547 10.2754 27.2383C9.90942 27.7219 9.41716 28.268 8.79785 28.876C8.1785 29.484 7.39506 30.2076 6.44727 31.0459L5.63086 31.7646L4.81445 31.0459C3.86672 30.2076 3.08321 29.484 2.46387 28.876C1.8445 28.2679 1.35134 27.722 0.985352 27.2383C0.619464 26.7547 0.363218 26.3106 0.217773 25.9053C0.0723163 25.4999 0 25.0849 0 24.6611C3.88461e-05 23.7954 0.295741 23.0725 0.886719 22.4922C1.4779 21.9118 2.21462 21.6211 3.09668 21.6211C3.58457 21.6211 4.04925 21.7222 4.49023 21.9248C4.9313 22.1275 5.31179 22.4137 5.63086 22.7822C5.9499 22.4137 6.32949 22.1275 6.77051 21.9248C7.21148 21.7222 7.67619 21.6211 8.16406 21.6211Z"/>
</mask>
<path d="M8.16406 21.6211V20.5211H8.16397L8.16406 21.6211ZM10.374 22.4922L11.1447 21.7072L11.1446 21.7072L10.374 22.4922ZM11.2607 24.6611H12.3607V24.6611L11.2607 24.6611ZM11.043 25.9053L12.0783 26.2769L12.0783 26.2768L11.043 25.9053ZM10.2754 27.2383L11.1526 27.902L11.1526 27.902L10.2754 27.2383ZM8.79785 28.876L9.56846 29.6609L9.56846 29.6609L8.79785 28.876ZM6.44727 31.0459L7.17414 31.8715L7.17605 31.8698L6.44727 31.0459ZM5.63086 31.7646L4.90399 32.5903L5.63086 33.2302L6.35773 32.5903L5.63086 31.7646ZM4.81445 31.0459L4.08567 31.8698L4.08758 31.8715L4.81445 31.0459ZM2.46387 28.876L1.69326 29.6609L1.69326 29.6609L2.46387 28.876ZM0.985352 27.2383L0.108159 27.902L0.108177 27.902L0.985352 27.2383ZM0.217773 25.9053L-0.817587 26.2768L-0.817576 26.2768L0.217773 25.9053ZM0 24.6611L-1.1 24.6611V24.6611H0ZM0.886719 22.4922L0.11611 21.7072L0.116013 21.7073L0.886719 22.4922ZM3.09668 21.6211V20.5211H3.09664L3.09668 21.6211ZM4.49023 21.9248L4.94954 20.9253L4.94946 20.9252L4.49023 21.9248ZM5.63086 22.7822L4.79926 23.5023L5.63086 24.4627L6.46246 23.5023L5.63086 22.7822ZM6.77051 21.9248L6.3112 20.9253L6.31117 20.9253L6.77051 21.9248ZM8.16406 21.6211V22.7211C8.77811 22.7211 9.23182 22.9123 9.60342 23.2771L10.374 22.4922L11.1446 21.7072C10.3338 20.9112 9.31427 20.5211 8.16406 20.5211V21.6211ZM10.374 22.4922L9.60339 23.2771C9.97353 23.6405 10.1607 24.0757 10.1607 24.6612L11.2607 24.6611L12.3607 24.6611C12.3607 23.5148 11.9568 22.5046 11.1447 21.7072L10.374 22.4922ZM11.2607 24.6611H10.1607C10.1607 24.957 10.1107 25.2464 10.0076 25.5338L11.043 25.9053L12.0783 26.2768C12.2661 25.7534 12.3607 25.2128 12.3607 24.6611H11.2607ZM11.043 25.9053L10.0076 25.5337C9.9119 25.8004 9.72266 26.1458 9.39822 26.5745L10.2754 27.2383L11.1526 27.902C11.56 27.3636 11.8831 26.8207 12.0783 26.2769L11.043 25.9053ZM10.2754 27.2383L9.39822 26.5745C9.07508 27.0016 8.62262 27.5065 8.02724 28.091L8.79785 28.876L9.56846 29.6609C10.2117 29.0295 10.7438 28.4423 11.1526 27.902L10.2754 27.2383ZM8.79785 28.876L8.02724 28.091C7.42594 28.6813 6.6576 29.3913 5.71848 30.222L6.44727 31.0459L7.17605 31.8698C8.13253 31.0238 8.93105 30.2867 9.56846 29.6609L8.79785 28.876ZM6.44727 31.0459L5.7204 30.2203L4.90399 30.939L5.63086 31.7646L6.35773 32.5903L7.17413 31.8715L6.44727 31.0459ZM5.63086 31.7646L6.35773 30.939L5.54132 30.2203L4.81445 31.0459L4.08758 31.8715L4.90399 32.5903L5.63086 31.7646ZM4.81445 31.0459L5.54324 30.222C4.60419 29.3914 3.83576 28.6813 3.23447 28.091L2.46387 28.876L1.69326 29.6609C2.33065 30.2867 3.12925 31.0239 4.08567 31.8698L4.81445 31.0459ZM2.46387 28.876L3.23448 28.091C2.63842 27.5059 2.18533 27.0011 1.86253 26.5745L0.985352 27.2383L0.108177 27.902C0.517353 28.4428 1.05058 29.03 1.69326 29.6609L2.46387 28.876ZM0.985352 27.2383L1.86254 26.5746C1.53807 26.1457 1.34881 25.8004 1.25312 25.5337L0.217773 25.9053L-0.817576 26.2768C-0.622377 26.8208 -0.299145 27.3637 0.108159 27.902L0.985352 27.2383ZM0.217773 25.9053L1.25313 25.5338C1.15003 25.2464 1.1 24.957 1.1 24.6611H0H-1.1C-1.1 25.2128 -1.0054 25.7534 -0.817587 26.2768L0.217773 25.9053ZM0 24.6611L1.1 24.6612C1.10003 24.0759 1.28732 23.6405 1.65742 23.2771L0.886719 22.4922L0.116013 21.7073C-0.695834 22.5045 -1.09995 23.5148 -1.1 24.6611L0 24.6611ZM0.886719 22.4922L1.65733 23.2771C2.02887 22.9124 2.48268 22.7211 3.09672 22.7211L3.09668 21.6211L3.09664 20.5211C1.94656 20.5211 0.926926 20.9112 0.11611 21.7072L0.886719 22.4922ZM3.09668 21.6211V22.7211C3.4273 22.7211 3.73521 22.7885 4.03101 22.9244L4.49023 21.9248L4.94946 20.9252C4.36329 20.6559 3.74184 20.5211 3.09668 20.5211V21.6211ZM4.49023 21.9248L4.03093 22.9243C4.3284 23.061 4.58222 23.2516 4.79926 23.5023L5.63086 22.7822L6.46246 22.0622C6.04136 21.5758 5.5342 21.194 4.94954 20.9253L4.49023 21.9248ZM5.63086 22.7822L6.46246 23.5023C6.68006 23.2509 6.93322 23.0606 7.22985 22.9243L6.77051 21.9248L6.31117 20.9253C5.72577 21.1943 5.21974 21.5766 4.79926 22.0622L5.63086 22.7822ZM6.77051 21.9248L7.22981 22.9243C7.52544 22.7885 7.83336 22.7211 8.16416 22.7211L8.16406 21.6211L8.16397 20.5211C7.51902 20.5211 6.89752 20.6559 6.3112 20.9253L6.77051 21.9248Z" fill="white" mask="url(#path-2-inside-1_1938_1744)"/>
<mask id="path-4-inside-2_1938_1744" fill="white">
<path d="M47.7725 6.63623C48.6544 6.63628 49.3913 6.92608 49.9824 7.50635C50.5736 8.08672 50.8691 8.81033 50.8691 9.67627C50.8691 10.1001 50.7958 10.515 50.6504 10.9204C50.5049 11.3256 50.2496 11.77 49.8838 12.2534C49.5178 12.7371 49.0246 13.2831 48.4053 13.8911C47.7859 14.4991 47.0024 15.2227 46.0547 16.061L45.2383 16.7798L44.4219 16.061C43.4741 15.2227 42.6907 14.4992 42.0713 13.8911C41.4519 13.2831 40.9588 12.7371 40.5928 12.2534C40.227 11.77 39.9716 11.3256 39.8262 10.9204C39.6807 10.515 39.6074 10.1001 39.6074 9.67627C39.6075 8.81033 39.9039 8.08672 40.4951 7.50635C41.0863 6.92624 41.8232 6.63623 42.7051 6.63623C43.1929 6.63629 43.6577 6.73732 44.0986 6.93994C44.5396 7.14262 44.9193 7.42891 45.2383 7.79736C45.5573 7.42885 45.9378 7.14262 46.3789 6.93994C46.8199 6.73736 47.2846 6.63623 47.7725 6.63623Z"/>
</mask>
<path d="M47.7725 6.63623L47.7725 5.53623H47.7725V6.63623ZM49.9824 7.50635L50.753 6.72139L50.753 6.72135L49.9824 7.50635ZM50.8691 9.67627H51.9691V9.67623L50.8691 9.67627ZM50.6504 10.9204L51.6857 11.2921L51.6858 11.2919L50.6504 10.9204ZM49.8838 12.2534L50.761 12.9172L50.761 12.9171L49.8838 12.2534ZM48.4053 13.8911L49.1759 14.6761L49.1759 14.6761L48.4053 13.8911ZM46.0547 16.061L46.7816 16.8867L46.7835 16.885L46.0547 16.061ZM45.2383 16.7798L44.5114 17.6054L45.2383 18.2453L45.9651 17.6054L45.2383 16.7798ZM44.4219 16.061L43.6931 16.885L43.695 16.8867L44.4219 16.061ZM42.0713 13.8911L41.3007 14.6761L41.3007 14.6761L42.0713 13.8911ZM40.5928 12.2534L39.7156 12.9171L39.7156 12.9172L40.5928 12.2534ZM39.8262 10.9204L38.7908 11.2919L38.7908 11.292L39.8262 10.9204ZM39.6074 9.67627L38.5074 9.67623V9.67627H39.6074ZM40.4951 7.50635L39.7247 6.72124L39.7245 6.72139L40.4951 7.50635ZM42.7051 6.63623L42.7052 5.53623H42.7051V6.63623ZM44.0986 6.93994L44.558 5.94045L44.5579 5.94042L44.0986 6.93994ZM45.2383 7.79736L44.4067 8.51739L45.2383 9.47786L46.0699 8.51739L45.2383 7.79736ZM46.3789 6.93994L45.9197 5.94038L45.9196 5.94042L46.3789 6.93994ZM47.7725 6.63623L47.7724 7.73623C48.3873 7.73627 48.841 7.92726 49.2119 8.29135L49.9824 7.50635L50.753 6.72135C49.9416 5.9249 48.9216 5.5363 47.7725 5.53623L47.7725 6.63623ZM49.9824 7.50635L49.2118 8.29131C49.5817 8.65443 49.7691 9.09041 49.7691 9.67631L50.8691 9.67627L51.9691 9.67623C51.9691 8.53025 51.5655 7.51901 50.753 6.72139L49.9824 7.50635ZM50.8691 9.67627H49.7691C49.7691 9.97049 49.7187 10.2599 49.615 10.5489L50.6504 10.9204L51.6858 11.2919C51.873 10.7702 51.9691 10.2296 51.9691 9.67627H50.8691ZM50.6504 10.9204L49.6151 10.5487C49.519 10.8164 49.33 11.1622 49.0066 11.5897L49.8838 12.2534L50.761 12.9171C51.1691 12.3778 51.4909 11.8348 51.6857 11.2921L50.6504 10.9204ZM49.8838 12.2534L49.0066 11.5897C48.6838 12.0163 48.2307 12.521 47.6347 13.1062L48.4053 13.8911L49.1759 14.6761C49.8186 14.0451 50.3518 13.4579 50.761 12.9172L49.8838 12.2534ZM48.4053 13.8911L47.6347 13.1061C47.0334 13.6964 46.265 14.4065 45.3259 15.2371L46.0547 16.061L46.7835 16.885C47.7399 16.039 48.5385 15.3018 49.1759 14.6761L48.4053 13.8911ZM46.0547 16.061L45.3278 15.2354L44.5114 15.9542L45.2383 16.7798L45.9651 17.6054L46.7816 16.8867L46.0547 16.061ZM45.2383 16.7798L45.9651 15.9542L45.1487 15.2354L44.4219 16.061L43.695 16.8867L44.5114 17.6054L45.2383 16.7798ZM44.4219 16.061L45.1507 15.2371C44.2115 14.4064 43.4432 13.6965 42.8419 13.1062L42.0713 13.8911L41.3007 14.6761C41.9381 15.3018 42.7366 16.0389 43.6931 16.885L44.4219 16.061ZM42.0713 13.8911L42.8419 13.1062C42.2459 12.521 41.7927 12.0163 41.4699 11.5897L40.5928 12.2534L39.7156 12.9172C40.1248 13.4579 40.658 14.0452 41.3007 14.6761L42.0713 13.8911ZM40.5928 12.2534L41.47 11.5897C41.1465 11.1622 40.9575 10.8163 40.8615 10.5488L39.8262 10.9204L38.7908 11.292C38.9857 11.8348 39.3075 12.3778 39.7156 12.9171L40.5928 12.2534ZM39.8262 10.9204L40.8615 10.5489C40.7578 10.2599 40.7074 9.97049 40.7074 9.67627H39.6074H38.5074C38.5074 10.2296 38.6036 10.7702 38.7908 11.2919L39.8262 10.9204ZM39.6074 9.67627L40.7074 9.67631C40.7074 9.09135 40.8952 8.65506 41.2657 8.29131L40.4951 7.50635L39.7245 6.72139C38.9127 7.51838 38.5075 8.52931 38.5074 9.67623L39.6074 9.67627ZM40.4951 7.50635L41.2656 8.29146C41.6366 7.92731 42.0905 7.73623 42.7051 7.73623V6.63623V5.53623C41.5559 5.53623 40.5359 5.92517 39.7247 6.72124L40.4951 7.50635ZM42.7051 6.63623L42.705 7.73623C43.0358 7.73627 43.3438 7.80364 43.6393 7.93946L44.0986 6.93994L44.5579 5.94042C43.9716 5.671 43.3501 5.5363 42.7052 5.53623L42.7051 6.63623ZM44.0986 6.93994L43.6393 7.93943C43.9359 8.07577 44.1891 8.26612 44.4067 8.51739L45.2383 7.79736L46.0699 7.07734C45.6494 6.59171 45.1433 6.20947 44.558 5.94045L44.0986 6.93994ZM45.2383 7.79736L46.0699 8.51739C46.2869 8.26672 46.5407 8.07616 46.8382 7.93946L46.3789 6.93994L45.9196 5.94042C45.3349 6.20909 44.8278 6.59099 44.4067 7.07734L45.2383 7.79736ZM46.3789 6.93994L46.8381 7.93951C47.1339 7.80361 47.4419 7.73623 47.7725 7.73623V6.63623V5.53623C47.1273 5.53623 46.5058 5.67111 45.9197 5.94038L46.3789 6.93994Z" fill="white" mask="url(#path-4-inside-2_1938_1744)"/>
<path d="M8.16211 16.7785C13.0168 5.49851 26.2683 0.220045 37.7521 4.99236" stroke="white" stroke-width="1.1" stroke-miterlimit="10"/>
<path d="M6.84277 11.3228L8.09494 16.7787L13.2107 14.2216" stroke="white" stroke-width="1.1" stroke-miterlimit="10"/>
<path d="M32.4814 6.49769L38.0325 5.26846L35.4344 0.25293" stroke="white" stroke-width="1.1" stroke-miterlimit="10"/>
</svg>
