<svg width="45" height="33" viewBox="0 0 45 33" fill="none" xmlns="http://www.w3.org/2000/svg">
<path d="M23.3398 25.4261L25.5465 30.2159L29.5954 28.515L27.7916 23.81L31.5078 22.0961L20.8517 12.6404L19.6748 27.0683L23.3398 25.4261Z" fill="white" stroke="white" stroke-width="1.1" stroke-miterlimit="10"/>
<mask id="path-2-inside-1_1938_1857" fill="white">
<path d="M7.94141 22.583C8.79923 22.5831 9.51586 22.8657 10.0908 23.4307C10.6658 23.9957 10.9531 24.6999 10.9531 25.543C10.9531 25.9555 10.8826 26.3593 10.7412 26.7539C10.5997 27.1486 10.3511 27.5818 9.99512 28.0527C9.63921 28.5235 9.15985 29.0547 8.55762 29.6465C7.9552 30.2385 7.19238 30.9426 6.27051 31.7588L5.47656 32.459L4.68262 31.7588C3.76074 30.9426 2.99792 30.2385 2.39551 29.6465C1.79327 29.0547 1.31391 28.5235 0.958008 28.0527C0.60203 27.5818 0.353392 27.1486 0.211914 26.7539C0.0704846 26.3593 0 25.9555 0 25.543C4.06268e-05 24.6999 0.287332 23.9957 0.862305 23.4307C1.43726 22.8657 2.15389 22.5831 3.01172 22.583C3.48621 22.583 3.93831 22.6817 4.36719 22.8789C4.79608 23.0762 5.16627 23.3542 5.47656 23.7129C5.78685 23.3542 6.15705 23.0762 6.58594 22.8789C7.01481 22.6817 7.46692 22.583 7.94141 22.583Z"/>
</mask>
<path d="M7.94141 22.583L7.94151 21.483H7.94141V22.583ZM10.0908 23.4307L10.8618 22.6461L10.8618 22.6461L10.0908 23.4307ZM10.9531 25.543H12.0531V25.5429L10.9531 25.543ZM10.7412 26.7539L11.7767 27.1251L11.7767 27.125L10.7412 26.7539ZM9.99512 28.0527L10.8726 28.7161L10.8726 28.7161L9.99512 28.0527ZM8.55762 29.6465L9.32861 30.4311L9.32863 30.4311L8.55762 29.6465ZM6.27051 31.7588L6.99809 32.5838L6.9997 32.5824L6.27051 31.7588ZM5.47656 32.459L4.74898 33.284L5.47656 33.9257L6.20414 33.284L5.47656 32.459ZM4.68262 31.7588L3.95343 32.5824L3.95503 32.5838L4.68262 31.7588ZM2.39551 29.6465L1.6245 30.4311L1.62451 30.4311L2.39551 29.6465ZM0.958008 28.0527L0.0805201 28.7161L0.0805247 28.7161L0.958008 28.0527ZM0.211914 26.7539L-0.823584 27.125L-0.823562 27.1251L0.211914 26.7539ZM0 25.543L-1.1 25.5429V25.543H0ZM0.862305 23.4307L0.091311 22.6461L0.0912969 22.6461L0.862305 23.4307ZM3.01172 22.583V21.483H3.01161L3.01172 22.583ZM4.36719 22.8789L4.82687 21.8796L4.82673 21.8795L4.36719 22.8789ZM5.47656 23.7129L4.64468 24.4326L5.47656 25.3941L6.30844 24.4326L5.47656 23.7129ZM6.58594 22.8789L6.12639 21.8795L6.12626 21.8796L6.58594 22.8789ZM7.94141 22.583L7.9413 23.683C8.53128 23.6831 8.96474 23.8663 9.31983 24.2152L10.0908 23.4307L10.8618 22.6461C10.067 21.865 9.06719 21.4831 7.94151 21.483L7.94141 22.583ZM10.0908 23.4307L9.31981 24.2152C9.67362 24.5629 9.8531 24.9797 9.85312 25.543L10.9531 25.543L12.0531 25.5429C12.0531 24.4202 11.658 23.4285 10.8618 22.6461L10.0908 23.4307ZM10.9531 25.543H9.85312C9.85312 25.8274 9.80499 26.1058 9.70571 26.3828L10.7412 26.7539L11.7767 27.125C11.9603 26.6129 12.0531 26.0836 12.0531 25.543H10.9531ZM10.7412 26.7539L9.70573 26.3827C9.61355 26.6399 9.43123 26.9746 9.11763 27.3894L9.99512 28.0527L10.8726 28.7161C11.271 28.1891 11.5859 27.6573 11.7767 27.1251L10.7412 26.7539ZM9.99512 28.0527L9.11763 27.3894C8.80491 27.8031 8.36561 28.2929 7.78661 28.8619L8.55762 29.6465L9.32863 30.4311C9.9541 29.8164 10.4735 29.244 10.8726 28.7161L9.99512 28.0527ZM8.55762 29.6465L7.78662 28.8619C7.20258 29.4358 6.45502 30.1262 5.54132 30.9352L6.27051 31.7588L6.9997 32.5824C7.92974 31.7589 8.70782 31.0411 9.32861 30.4311L8.55762 29.6465ZM6.27051 31.7588L5.54293 30.9338L4.74898 31.634L5.47656 32.459L6.20414 33.284L6.99809 32.5838L6.27051 31.7588ZM5.47656 32.459L6.20414 31.634L5.4102 30.9338L4.68262 31.7588L3.95503 32.5838L4.74898 33.284L5.47656 32.459ZM4.68262 31.7588L5.4118 30.9352C4.4981 30.1262 3.75054 29.4358 3.1665 28.8619L2.39551 29.6465L1.62451 30.4311C2.2453 31.0411 3.02338 31.7589 3.95343 32.5824L4.68262 31.7588ZM2.39551 29.6465L3.16652 28.8619C2.58752 28.2929 2.14821 27.8031 1.83549 27.3894L0.958008 28.0527L0.0805247 28.7161C0.479609 29.244 0.999024 29.8164 1.6245 30.4311L2.39551 29.6465ZM0.958008 28.0527L1.8355 27.3894C1.52189 26.9746 1.33957 26.6399 1.24739 26.3827L0.211914 26.7539L-0.823562 27.1251C-0.63279 27.6573 -0.317834 28.1891 0.0805201 28.7161L0.958008 28.0527ZM0.211914 26.7539L1.24741 26.3828C1.14813 26.1058 1.1 25.8274 1.1 25.543H0H-1.1C-1.1 26.0836 -1.00716 26.6129 -0.823584 27.125L0.211914 26.7539ZM0 25.543L1.1 25.543C1.10003 24.9796 1.2795 24.5629 1.63331 24.2152L0.862305 23.4307L0.0912969 22.6461C-0.704836 23.4285 -1.09995 24.4202 -1.1 25.5429L0 25.543ZM0.862305 23.4307L1.6333 24.2152C1.98838 23.8663 2.42185 23.6831 3.01182 23.683L3.01172 22.583L3.01161 21.483C1.88593 21.4831 0.886139 21.865 0.091311 22.6461L0.862305 23.4307ZM3.01172 22.583V23.683C3.32841 23.683 3.62367 23.7477 3.90764 23.8783L4.36719 22.8789L4.82673 21.8795C4.25295 21.6157 3.644 21.483 3.01172 21.483V22.583ZM4.36719 22.8789L3.90751 23.8783C4.19356 24.0098 4.43691 24.1924 4.64468 24.4326L5.47656 23.7129L6.30844 22.9932C5.89563 22.516 5.3986 22.1425 4.82687 21.8796L4.36719 22.8789ZM5.47656 23.7129L6.30844 24.4326C6.51621 24.1924 6.75956 24.0098 7.04562 23.8783L6.58594 22.8789L6.12626 21.8796C5.55453 22.1425 5.0575 22.516 4.64468 22.9932L5.47656 23.7129ZM6.58594 22.8789L7.04548 23.8783C7.32945 23.7477 7.62471 23.683 7.94141 23.683V22.583V21.483C7.30913 21.483 6.70018 21.6157 6.12639 21.8795L6.58594 22.8789Z" fill="white" mask="url(#path-2-inside-1_1938_1857)"/>
<path d="M40.9217 7.69432C39.4122 7.38804 37.9922 7.1013 37.9922 5.811C37.9922 4.87912 38.8173 3.94723 40.6595 3.94723C42.0538 3.94723 43.0133 4.5598 43.5058 5.76538L43.5314 5.82403H44.2286L44.1838 5.6937C43.8 4.52721 42.7702 3.28253 41.0049 3.23691V1.52954H40.3077V3.23691C38.811 3.27601 37.2887 4.23396 37.2887 5.811C37.2887 7.66826 39.1627 8.05274 40.8194 8.39161C42.2393 8.68486 43.5761 8.96507 43.5761 10.0794C43.5761 11.096 42.6743 12.1191 40.6531 12.1191C38.7662 12.1191 37.9283 11.1286 37.5573 10.2945L37.5317 10.2358H36.8281L36.8729 10.3662C37.2631 11.4805 38.3952 12.7773 40.3077 12.8229V14.5303H41.0049V12.8229C43.1284 12.7838 44.2733 11.3893 44.2733 10.0794C44.2733 8.37206 42.5655 8.02667 40.9153 7.69432H40.9217Z" fill="white"/>
<path d="M7.18945 16.6284C11.8267 5.44576 24.4848 0.212866 35.4544 4.94398" stroke="white" stroke-width="1.1" stroke-miterlimit="10"/>
<path d="M5.92871 11.2195L7.12481 16.6283L12.0115 14.0933" stroke="white" stroke-width="1.1" stroke-miterlimit="10"/>
<path d="M30.4199 6.43645L35.7224 5.21783L33.2407 0.245605" stroke="white" stroke-width="1.1" stroke-miterlimit="10"/>
</svg>
