<svg width="49" height="35" viewBox="0 0 49 35" fill="none" xmlns="http://www.w3.org/2000/svg">
<path d="M24.0874 26.491L26.472 31.482L30.8472 29.7097L28.898 24.807L32.9138 23.0211L21.3987 13.1681L20.127 28.2022L24.0874 26.491Z" fill="white" stroke="white" stroke-width="1.1" stroke-miterlimit="10"/>
<path d="M4.41665 27.2178C2.78546 26.8987 1.25104 26.5999 1.25104 25.2554C1.25104 24.2843 2.14266 23.3065 4.13326 23.3065C5.64004 23.3065 6.67681 23.9448 7.20902 25.201L7.23667 25.2622H7.99006L7.94167 25.1263C7.52696 23.9108 6.41416 22.6139 4.5065 22.5663V20.7872H3.75311V22.5663C2.13575 22.6071 0.490739 23.6053 0.490739 25.2486C0.490739 27.1839 2.5159 27.5845 4.30606 27.9376C5.84048 28.2432 7.28505 28.5284 7.28505 29.6963C7.28505 30.7556 6.31048 31.8217 4.12635 31.8217C2.08737 31.8217 1.18192 30.7896 0.781035 29.9272L0.753388 29.8661H0L0.0483827 30.0019C0.470003 31.1631 1.69339 32.5144 3.76003 32.5619V34.341H4.51341V32.5619C6.80814 32.5212 8.04535 31.068 8.04535 29.7031C8.04535 27.924 6.1999 27.5641 4.41665 27.2178Z" fill="white"/>
<path d="M44.3952 8.0146C42.7641 7.69545 41.2296 7.39667 41.2296 6.05216C41.2296 5.08112 42.1213 4.11008 44.1119 4.11008C45.6186 4.11008 46.6554 4.74839 47.1876 6.00462L47.2153 6.06574H47.9686L47.9203 5.92993C47.5056 4.71444 46.3928 3.41746 44.4851 3.36992V1.59082H43.7317V3.36992C42.1143 3.41067 40.4693 4.40887 40.4693 6.05216C40.4693 7.98744 42.4945 8.38808 44.2846 8.74118C45.8191 9.04675 47.2636 9.33875 47.2636 10.4999C47.2636 11.5592 46.2891 12.6253 44.1049 12.6253C42.066 12.6253 41.1605 11.5932 40.7596 10.724L40.732 10.6629H39.9717L40.0201 10.7987C40.4417 11.9599 41.6651 13.3112 43.7317 13.3587V15.1378H44.4851V13.3587C46.7798 13.318 48.017 11.8648 48.017 10.4999C48.017 8.72081 46.1716 8.36092 44.3883 8.0146H44.3952Z" fill="white"/>
<path d="M6.63574 17.3237C11.6468 5.67129 25.3253 0.218543 37.179 5.14842" stroke="white" stroke-width="1.1" stroke-miterlimit="10"/>
<path d="M5.27344 11.6879L6.56595 17.324L11.8466 14.6825" stroke="white" stroke-width="1.1" stroke-miterlimit="10"/>
<path d="M31.7393 6.70375L37.4692 5.43393L34.7874 0.252808" stroke="white" stroke-width="1.1" stroke-miterlimit="10"/>
</svg>
